<svg width="48" height="49" viewBox="0 0 48 49" fill="none" xmlns="http://www.w3.org/2000/svg">
<path d="M24 0.359741C20.8483 0.359741 17.7274 0.995932 14.8156 2.23199C11.9038 3.46805 9.25804 5.27976 7.02944 7.5637C2.52856 12.1763 0 18.4324 0 24.9556C0 35.827 6.888 45.0504 16.416 48.3216C17.616 48.5184 18 47.7559 18 47.0919V42.9352C11.352 44.4109 9.936 39.6393 9.936 39.6393C8.832 36.7862 7.272 36.0237 7.272 36.0237C5.088 34.4988 7.44 34.548 7.44 34.548C9.84 34.7201 11.112 37.0813 11.112 37.0813C13.2 40.8199 16.728 39.7131 18.096 39.1228C18.312 37.5241 18.936 36.4418 19.608 35.827C14.28 35.2121 8.688 33.0968 8.688 23.7258C8.688 20.9957 9.6 18.8066 11.16 17.0603C10.92 16.4454 10.08 13.8875 11.4 10.567C11.4 10.567 13.416 9.90293 18 13.0758C19.896 12.5347 21.96 12.2641 24 12.2641C26.04 12.2641 28.104 12.5347 30 13.0758C34.584 9.90293 36.6 10.567 36.6 10.567C37.92 13.8875 37.08 16.4454 36.84 17.0603C38.4 18.8066 39.312 20.9957 39.312 23.7258C39.312 33.1214 33.696 35.1875 28.344 35.8024C29.208 36.5648 30 38.0652 30 40.3526V47.0919C30 47.7559 30.384 48.543 31.608 48.3216C41.136 45.0258 48 35.827 48 24.9556C48 21.7256 47.3792 18.5273 46.1731 15.5432C44.967 12.5591 43.1992 9.84763 40.9706 7.5637C38.742 5.27976 36.0962 3.46805 33.1844 2.23199C30.2726 0.995932 27.1517 0.359741 24 0.359741Z" fill="#05257C"/>
</svg>
