<svg width="48" height="49" viewBox="0 0 48 49" fill="none" xmlns="http://www.w3.org/2000/svg">
<path d="M42.6667 0.359741C44.0812 0.359741 45.4377 0.921644 46.4379 1.92184C47.4381 2.92203 48 4.27859 48 5.69307V43.0264C48 44.4409 47.4381 45.7975 46.4379 46.7976C45.4377 47.7978 44.0812 48.3597 42.6667 48.3597H5.33333C3.91885 48.3597 2.56229 47.7978 1.5621 46.7976C0.561903 45.7975 0 44.4409 0 43.0264V5.69307C0 4.27859 0.561903 2.92203 1.5621 1.92184C2.56229 0.921644 3.91885 0.359741 5.33333 0.359741H42.6667ZM41.3333 41.6931V27.5597C41.3333 25.2541 40.4174 23.0429 38.7871 21.4126C37.1568 19.7823 34.9456 18.8664 32.64 18.8664C30.3733 18.8664 27.7333 20.2531 26.4533 22.3331V19.3731H19.0133V41.6931H26.4533V28.5464C26.4533 26.4931 28.1067 24.8131 30.16 24.8131C31.1501 24.8131 32.0997 25.2064 32.7999 25.9065C33.5 26.6067 33.8933 27.5563 33.8933 28.5464V41.6931H41.3333ZM10.3467 15.1864C11.5348 15.1864 12.6743 14.7144 13.5145 13.8742C14.3547 13.0341 14.8267 11.8946 14.8267 10.7064C14.8267 8.22641 12.8267 6.19974 10.3467 6.19974C9.15142 6.19974 8.00514 6.67455 7.15997 7.51971C6.31481 8.36488 5.84 9.51117 5.84 10.7064C5.84 13.1864 7.86667 15.1864 10.3467 15.1864ZM14.0533 41.6931V19.3731H6.66667V41.6931H14.0533Z" fill="#05257C"/>
</svg>
